<?xml version="1.0" standalone="no"?>
<!DOCTYPE svg PUBLIC "-//W3C//DTD SVG 20010904//EN"
 "http://www.w3.org/TR/2001/REC-SVG-20010904/DTD/svg10.dtd">
<svg version="1.0" xmlns="http://www.w3.org/2000/svg"
 width="949.000000pt" height="943.000000pt" viewBox="0 0 949.000000 943.000000"
 preserveAspectRatio="xMidYMid meet">

<g transform="translate(0.000000,943.000000) scale(0.100000,-0.100000)"
fill="#000000" stroke="none">
<path d="M7320 7334 c0 -35 -28 -162 -41 -186 -5 -10 -9 -23 -9 -29 0 -20 -70
-99 -109 -123 -44 -27 -116 -54 -156 -58 -42 -4 -35 -21 17 -36 136 -43 199
-87 238 -168 27 -55 60 -177 60 -223 0 -46 12 -31 21 27 19 125 58 219 113
273 36 36 114 76 165 85 20 4 45 11 56 17 19 10 19 10 0 18 -11 4 -30 8 -43 8
-34 1 -150 61 -182 94 -52 54 -90 147 -109 269 -9 56 -21 74 -21 32z"/>
<path d="M1672 6598 c30 -94 118 -237 179 -289 91 -80 126 -106 209 -156 146
-88 234 -125 450 -186 174 -50 34 -47 2293 -47 l2107 0 5 23 c3 12 4 171 3
352 l-3 330 -2627 3 -2626 2 10 -32z"/>
<path d="M5312 5778 c-9 -9 -12 -399 -12 -1692 0 -925 4 -1687 8 -1693 12 -19
1042 -19 1054 -1 9 15 11 3341 2 3376 l-6 22 -517 0 c-389 0 -520 -3 -529 -12z"/>
<path d="M3450 5089 c-267 -23 -518 -135 -705 -316 -102 -98 -209 -274 -227
-373 -4 -25 -12 -65 -18 -90 -24 -115 -7 -337 36 -460 22 -61 76 -170 85 -170
4 0 10 -9 14 -20 13 -39 240 -250 270 -250 4 0 32 -12 63 -26 120 -55 314 -90
447 -79 238 19 411 83 528 197 63 62 142 179 154 228 3 14 10 30 15 37 12 15
32 135 32 198 1 80 -22 225 -45 285 -11 30 -25 68 -29 84 -20 64 -96 174 -172
249 -51 50 -78 83 -74 92 10 27 24 23 195 -57 257 -121 547 -366 734 -621 48
-64 87 -119 87 -122 0 -3 17 -31 38 -63 76 -117 130 -220 177 -342 20 -52 43
-111 50 -130 8 -19 23 -61 33 -93 l19 -58 7 42 c4 23 6 236 6 474 -2 486 4
447 -86 560 -31 39 -70 88 -87 110 -59 73 -206 215 -332 320 -33 28 -65 55
-72 62 -12 11 -51 35 -172 105 -73 43 -182 95 -286 137 -11 5 -45 15 -75 24
-30 8 -79 23 -109 31 -29 9 -71 16 -93 16 -22 0 -47 4 -56 9 -22 11 -257 18
-352 10z"/>
</g>
</svg>
